<?xml version="1.0" encoding="UTF-8"?>
<!DOCTYPE svg PUBLIC "-//W3C//DTD SVG 1.1//EN" "http://www.w3.org/Graphics/SVG/1.1/DTD/svg11.dtd">
<!-- Creator: CorelDRAW X8 -->
<svg xmlns="http://www.w3.org/2000/svg" xml:space="preserve" width="100.101mm" height="100.101mm" version="1.1" style="shape-rendering:geometricPrecision; text-rendering:geometricPrecision; image-rendering:optimizeQuality; fill-rule:evenodd; clip-rule:evenodd"
viewBox="0 0 2008 2008"
 xmlns:xlink="http://www.w3.org/1999/xlink">
 <defs>
  <style type="text/css">
   <![CDATA[
    .fil0 {fill:#F79813}
    .fil1 {fill:white}
   ]]>
  </style>
 </defs>
 <g id="Layer_x0020_1">
  <metadata id="CorelCorpID_0Corel-Layer"/>
  <rect class="fil0" width="2008" height="2008" rx="497" ry="497"/>
  <path class="fil1" d="M380 1060c61,-142 200,-232 363,-232 220,0 398,164 398,396 0,232 -178,397 -398,397 -22,0 -45,-2 -66,-5 5,7 11,12 21,12l609 0c24,0 26,-30 44,-59l254 -403c142,-225 -411,-461 -603,-461 -162,0 -579,168 -622,355zm886 -312c-9,-24 -16,-48 -24,-72 -49,-148 -97,-296 -238,-296 -141,0 -189,148 -238,296 -7,23 -15,46 -22,68 19,-8 39,-15 58,-21l11 -32c42,-131 85,-262 191,-262 106,0 148,131 191,262 4,12 8,23 12,35 19,7 39,14 59,22zm-371 476c0,-105 -52,-172 -152,-172 -97,0 -150,67 -150,172 0,102 53,171 150,171 100,0 152,-69 152,-171z"/>
  <path class="fil1" d="M743 1395c100,0 152,-69 152,-171 0,-105 -52,-172 -152,-172 -97,0 -150,67 -150,172 0,102 53,171 150,171z"/>
 </g>
</svg>
